<?xml version="1.0" encoding="UTF-8"?>
<svg xmlns="http://www.w3.org/2000/svg" xmlns:xlink="http://www.w3.org/1999/xlink" width="85pt" height="85pt" viewBox="0 0 85 85" version="1.1">
<g id="surface1">
<path style=" stroke:none;fill-rule:nonzero;fill:rgb(94.509804%,39.607843%,16.078431%);fill-opacity:1;" d="M 85 42.5 C 85 65.972656 65.972656 85 42.5 85 C 19.027344 85 0 65.972656 0 42.5 C 0 19.027344 19.027344 0 42.5 0 C 65.972656 0 85 19.027344 85 42.5 Z M 85 42.5 "/>
<path style=" stroke:none;fill-rule:nonzero;fill:rgb(100%,100%,100%);fill-opacity:1;" d="M 19.09375 19.257812 L 23.359375 67.070312 L 42.484375 72.382812 L 61.640625 67.070312 L 65.90625 19.257812 Z M 19.09375 19.257812 "/>
<path style=" stroke:none;fill-rule:nonzero;fill:rgb(94.509804%,39.607843%,16.078431%);fill-opacity:1;" d="M 56.660156 34.898438 L 34.214844 34.898438 L 34.765625 40.90625 L 56.128906 40.90625 L 54.519531 58.917969 L 42.5 62.238281 L 42.484375 62.238281 L 30.480469 58.917969 L 29.632812 49.488281 L 35.527344 49.488281 L 35.960938 54.386719 L 42.5 56.148438 L 49.039062 54.371094 L 49.722656 46.765625 L 29.402344 46.765625 L 27.808594 29.035156 L 57.191406 29.035156 Z M 56.660156 34.898438 "/>
</g>
</svg>
