<?xml version="1.0" encoding="UTF-8"?>
<svg xmlns="http://www.w3.org/2000/svg" xmlns:xlink="http://www.w3.org/1999/xlink" width="85pt" height="85pt" viewBox="0 0 85 85" version="1.1">
<g id="surface1">
<path style=" stroke:none;fill-rule:nonzero;fill:rgb(53.333333%,57.254902%,74.509804%);fill-opacity:1;" d="M 85 42.5 C 85 65.972656 65.972656 85 42.5 85 C 19.027344 85 0 65.972656 0 42.5 C 0 19.027344 19.027344 0 42.5 0 C 65.972656 0 85 19.027344 85 42.5 Z M 85 42.5 "/>
<path style=" stroke:none;fill-rule:nonzero;fill:rgb(100%,100%,100%);fill-opacity:1;" d="M 26.578125 38.300781 C 28.238281 38.300781 29.335938 38.597656 29.898438 39.210938 C 30.445312 39.828125 30.578125 40.875 30.296875 42.367188 C 30 43.910156 29.417969 45.023438 28.554688 45.6875 C 27.691406 46.351562 26.378906 46.683594 24.621094 46.683594 L 21.964844 46.683594 L 23.589844 38.300781 Z M 15.9375 55.183594 L 20.304688 55.183594 L 21.332031 49.855469 L 25.070312 49.855469 C 26.710938 49.855469 28.074219 49.6875 29.136719 49.339844 C 30.199219 48.992188 31.179688 48.410156 32.039062 47.597656 C 32.773438 46.914062 33.367188 46.183594 33.816406 45.371094 C 34.265625 44.558594 34.597656 43.660156 34.78125 42.683594 C 35.246094 40.308594 34.898438 38.449219 33.734375 37.136719 C 32.570312 35.824219 30.730469 35.144531 28.207031 35.144531 L 19.804688 35.144531 Z M 15.9375 55.183594 "/>
<path style=" stroke:none;fill-rule:nonzero;fill:rgb(100%,100%,100%);fill-opacity:1;" d="M 38 29.816406 L 42.335938 29.816406 L 41.304688 35.144531 L 45.15625 35.144531 C 47.582031 35.144531 49.257812 35.578125 50.1875 36.421875 C 51.117188 37.269531 51.382812 38.648438 51.015625 40.539062 L 49.207031 49.871094 L 44.808594 49.871094 L 46.535156 41.003906 C 46.734375 39.992188 46.648438 39.3125 46.320312 38.945312 C 45.96875 38.582031 45.257812 38.398438 44.144531 38.398438 L 40.671875 38.398438 L 38.449219 49.871094 L 34.117188 49.871094 Z M 38 29.816406 "/>
<path style=" stroke:none;fill-rule:nonzero;fill:rgb(100%,100%,100%);fill-opacity:1;" d="M 60.644531 38.300781 C 62.304688 38.300781 63.402344 38.597656 63.964844 39.210938 C 64.515625 39.828125 64.648438 40.875 64.363281 42.367188 C 64.066406 43.910156 63.484375 45.023438 62.621094 45.6875 C 61.757812 46.351562 60.445312 46.683594 58.6875 46.683594 L 56.03125 46.683594 L 57.65625 38.300781 Z M 50.003906 55.183594 L 54.371094 55.183594 L 55.398438 49.855469 L 59.132812 49.855469 C 60.777344 49.855469 62.140625 49.6875 63.203125 49.339844 C 64.265625 48.992188 65.226562 48.410156 66.109375 47.597656 C 66.835938 46.914062 67.4375 46.183594 67.882812 45.371094 C 68.332031 44.558594 68.664062 43.660156 68.847656 42.683594 C 69.3125 40.308594 68.960938 38.449219 67.800781 37.136719 C 66.640625 35.808594 64.796875 35.144531 62.273438 35.144531 L 53.871094 35.144531 Z M 50.003906 55.183594 "/>
</g>
</svg>
