<?xml version="1.0" encoding="UTF-8"?>
<svg xmlns="http://www.w3.org/2000/svg" xmlns:xlink="http://www.w3.org/1999/xlink" width="85pt" height="85pt" viewBox="0 0 85 85" version="1.1">
<g id="surface1">
<path style=" stroke:none;fill-rule:nonzero;fill:rgb(14.901961%,30.196078%,43.529412%);fill-opacity:1;" d="M 85 42.5 C 85 46.8125 84.359375 50.976562 83.164062 54.898438 C 83.164062 54.898438 83.164062 54.898438 83.160156 54.902344 C 81.78125 59.425781 79.671875 63.632812 76.960938 67.378906 C 73.097656 72.71875 68.023438 77.128906 62.140625 80.199219 C 60.40625 81.105469 58.605469 81.894531 56.742188 82.554688 C 55.234375 83.09375 53.683594 83.542969 52.101562 83.910156 C 49.015625 84.625 45.804688 85 42.5 85 C 35.605469 85 29.09375 83.359375 23.335938 80.445312 C 17.953125 77.722656 13.230469 73.886719 9.464844 69.242188 C 6.046875 65.023438 3.417969 60.136719 1.808594 54.804688 C 0.632812 50.910156 0 46.78125 0 42.5 C 0 19.027344 19.027344 0 42.5 0 C 65.972656 0 85 19.027344 85 42.5 Z M 85 42.5 "/>
<path style=" stroke:none;fill-rule:nonzero;fill:rgb(21.960784%,46.27451%,67.45098%);fill-opacity:1;" d="M 61.777344 18.558594 L 61.777344 39.523438 C 61.777344 44.457031 57.777344 48.457031 52.84375 48.457031 L 31.363281 48.457031 C 25.15625 48.457031 20.125 53.492188 20.125 59.703125 L 20.125 70 L 13.101562 70 C 11.832031 70 10.609375 69.746094 9.464844 69.242188 C 6.046875 65.023438 3.417969 60.136719 1.808594 54.804688 C 1.683594 53.492188 1.617188 52.085938 1.617188 50.597656 C 1.617188 37.570312 6.761719 31.191406 13.101562 31.191406 L 42.617188 31.191406 L 42.617188 28.167969 L 22.972656 28.167969 L 22.972656 18.558594 C 22.972656 13.679688 31.660156 9.722656 42.375 9.722656 C 53.09375 9.722656 61.777344 13.679688 61.777344 18.558594 Z M 61.777344 18.558594 "/>
<path style=" stroke:none;fill-rule:nonzero;fill:rgb(94.901961%,94.901961%,94.901961%);fill-opacity:1;" d="M 35 19.359375 C 35 21.332031 33.402344 22.929688 31.429688 22.929688 C 29.460938 22.929688 27.859375 21.332031 27.859375 19.359375 C 27.859375 17.390625 29.460938 15.789062 31.429688 15.789062 C 33.402344 15.789062 35 17.390625 35 19.359375 Z M 35 19.359375 "/>
<path style=" stroke:none;fill-rule:nonzero;fill:rgb(96.862745%,80.392157%,0%);fill-opacity:1;" d="M 83.496094 49.476562 C 83.496094 51.433594 83.382812 53.242188 83.164062 54.898438 C 83.164062 54.898438 83.164062 54.898438 83.160156 54.902344 C 81.78125 59.425781 79.671875 63.632812 76.960938 67.378906 C 75.460938 68.378906 73.785156 68.878906 72.015625 68.878906 L 42.5 68.878906 L 42.5 71.90625 L 62.140625 71.90625 L 62.140625 80.199219 C 60.40625 81.105469 58.605469 81.894531 56.742188 82.554688 C 55.234375 83.09375 53.683594 83.542969 52.101562 83.910156 C 49.015625 84.625 45.804688 85 42.5 85 C 35.605469 85 29.09375 83.359375 23.335938 80.445312 L 23.335938 60.550781 C 23.335938 55.613281 27.339844 51.613281 32.273438 51.613281 L 53.75 51.613281 C 59.960938 51.613281 64.992188 46.578125 64.992188 40.371094 L 64.992188 30.074219 L 72.015625 30.074219 C 78.355469 30.074219 83.496094 36.320312 83.496094 49.476562 Z M 83.496094 49.476562 "/>
<path style=" stroke:none;fill-rule:nonzero;fill:rgb(94.901961%,94.901961%,94.901961%);fill-opacity:1;" d="M 57.253906 80.710938 C 57.253906 81.386719 57.066406 82.019531 56.742188 82.554688 C 55.234375 83.09375 53.683594 83.542969 52.101562 83.910156 C 50.925781 83.328125 50.117188 82.113281 50.117188 80.710938 C 50.117188 78.738281 51.714844 77.140625 53.683594 77.140625 C 55.65625 77.140625 57.253906 78.738281 57.253906 80.710938 Z M 57.253906 80.710938 "/>
</g>
</svg>
